{"title":"BBC Symphony - 2. Beethoven and Beyond [MP4 720p]","uid":6813436,"size":1134075942,"categoryP":"video","categoryS":"hd___tv_shows","magnet":"?xt=urn:btih:1382ef4fefad795706c9ff46d3846e0f5ac78e59&amp;dn=BBC+Symphony+-+2.+Beethoven+and+Beyond+%5BMP4+720p%5D&amp;tr=udp%3A%2F%2Ftracker.openbittorrent.com%3A80&amp;tr=udp%3A%2F%2Fopen.demonii.com%3A1337&amp;tr=udp%3A%2F%2Ftracker.coppersurfer.tk%3A6969&amp;tr=udp%3A%2F%2Fexodus.desync.com%3A6969","seeders":1,"leechers":0,"uploader":null,"files":4,"time":1321111096,"description":"BBC Symphony - 2. Beethoven and Beyond\n\nSimon Russell Beale continues his journey into the world of the symphony with the story of the revolutionary later symphonies of Ludwig van Beethoven and their phenomenal impact. We also meet Franz Schubert, whose two greatest symphonies were only discovered after his tragic early death, the obsessive French Romantic Hector Berlioz and the flamboyant pianist-turned-composer Franz Liszt. The music is performed by the Orchestra of the Age of Enlightenment and the Halle, conducted by Sir Mark Elder.\n\nFormat profile                           : Base Media\nCodec ID                                 : isom\nFile size                                : 1.06 GiB\nDuration                                 : 59mn 4s\nOverall bit rate                         : 2 560 Kbps\nWriting application                      : Lavf53.13.0\n\nVideo\nID                                       : 1\nFormat                                   : AVC\nFormat/Info                              : Advanced Video Codec\nFormat profile                           : &lt;a class=&quot;__cf_email__&quot; href=&quot;/cdn-cgi/l/email-protection&quot; data-cfemail=&quot;a7efcec0cfe7eb938996&quot;&gt;[email&amp;#160;protected]&lt;/a&gt;&lt;script cf-hash='f9e31' type=&quot;text/javascript&quot;&gt;\n/* &lt;![CDATA[ */!function(){try{var t=&quot;currentScript&quot;in document?document.currentScript:function(){for(var t=document.getElementsByTagName(&quot;script&quot;),e=t.length;e--;)if(t[e].getAttribute(&quot;cf-hash&quot;))return t[e]}();if(t&amp;&amp;t.previousSibling){var e,r,n,i,c=t.previousSibling,a=c.getAttribute(&quot;data-cfemail&quot;);if(a){for(e=&quot;&quot;,r=parseInt(a.substr(0,2),16),n=2;a.length-n;n+=2)i=parseInt(a.substr(n,2),16)^r,e+=String.fromCharCode(i);e=document.createTextNode(e),c.parentNode.replaceChild(e,c)}}}catch(u){}}();/* ]]&gt; */&lt;/script&gt;\nFormat settings, CABAC                   : Yes\nFormat settings, ReFrames                : 6 frames\nCodec ID                                 : avc1\nCodec ID/Info                            : Advanced Video Coding\nDuration                                 : 59mn 4s\nBit rate mode                            : Variable\nBit rate                                 : 2 459 Kbps\nMaximum bit rate                         : 3 500 Kbps\nWidth                                    : 1 280 pixels\nHeight                                   : 720 pixels\nDisplay aspect ratio                     : 16:9\nFrame rate mode                          : Constant\nFrame rate                               : 25.000 fps\nStandard                                 : PAL\nColor space                              : YUV\nChroma subsampling                       : 4:2:0\nBit depth                                : 8 bits\nScan type                                : Progressive\nBits/(Pixel*Frame)                       : 0.107\nStream size                              : 1.01 GiB (96%)\n\nAudio\nID                                       : 2\nFormat                                   : AAC\nFormat/Info                              : Advanced Audio Codec\nFormat profile                           : HE-AAC / LC\nCodec ID                                 : 40\nDuration                                 : 59mn 4s\nBit rate mode                            : Constant\nBit rate                                 : 96.0 Kbps\nChannel(s)                               : 2 channels\nChannel positions                        : Front: L R\nSampling rate                            : 48.0 KHz / 24.0 KHz\nCompression mode                         : Lossy\nStream size                              : 40.0 MiB","torrent":{"xt":"urn:btih:1382ef4fefad795706c9ff46d3846e0f5ac78e59","amp;dn":"BBC+Symphony+-+2.+Beethoven+and+Beyond+%5BMP4+720p%5D","amp;tr":["udp%3A%2F%2Ftracker.openbittorrent.com%3A80","udp%3A%2F%2Fopen.demonii.com%3A1337","udp%3A%2F%2Ftracker.coppersurfer.tk%3A6969","udp%3A%2F%2Fexodus.desync.com%3A6969"],"infoHash":"1382ef4fefad795706c9ff46d3846e0f5ac78e59","infoHashBuffer":{"type":"Buffer","data":[19,130,239,79,239,173,121,87,6,201,255,70,211,132,110,15,90,199,142,89]},"announce":[],"urlList":[]}}